<svg width="18" height="19" viewBox="0 0 18 19" fill="none" xmlns="http://www.w3.org/2000/svg">
<path d="M3.07007 18.5H14.9299C15.9533 18.5 16.7192 18.2458 17.2276 17.7374C17.7425 17.2355 18 16.4794 18 15.469V3.53096C18 2.52064 17.7425 1.76453 17.2276 1.26263C16.7192 0.75421 15.9533 0.5 14.9299 0.5H3.07007C2.04671 0.5 1.27757 0.75421 0.762629 1.26263C0.25421 1.76453 0 2.52064 0 3.53096V15.469C0 16.4794 0.25421 17.2355 0.762629 17.7374C1.27757 18.2458 2.04671 18.5 3.07007 18.5ZM7.90983 14.2567C7.74036 14.2567 7.58718 14.2208 7.4503 14.1491C7.31342 14.0774 7.17979 13.9568 7.04943 13.7873L4.59533 10.7759C4.52363 10.6782 4.46496 10.5771 4.41934 10.4728C4.38023 10.362 4.36067 10.2512 4.36067 10.1404C4.36067 9.91879 4.43563 9.72977 4.58555 9.57333C4.73547 9.41038 4.92124 9.3289 5.14286 9.3289C5.28626 9.3289 5.41336 9.35823 5.52417 9.41689C5.6415 9.47556 5.76209 9.58637 5.88593 9.74932L7.87072 12.311L12.0456 5.60375C12.2281 5.30391 12.4628 5.15399 12.7496 5.15399C12.9582 5.15399 13.1472 5.22243 13.3167 5.35932C13.4861 5.48968 13.5709 5.66893 13.5709 5.89707C13.5709 6.00788 13.5448 6.11869 13.4927 6.2295C13.4405 6.3403 13.3851 6.4446 13.3265 6.54237L8.73112 13.7873C8.62683 13.9438 8.50625 14.0611 8.36936 14.1393C8.23248 14.2175 8.0793 14.2567 7.90983 14.2567Z" fill="#15C686"/>
</svg>
